<?xml version="1.0" encoding="utf-8"?>
<!-- Svg Vector Icons : http://www.onlinewebfonts.com/icon -->
<!DOCTYPE svg PUBLIC "-//W3C//DTD SVG 1.1//EN" "http://www.w3.org/Graphics/SVG/1.1/DTD/svg11.dtd">
<svg version="1.1" xmlns="http://www.w3.org/2000/svg" xmlns:xlink="http://www.w3.org/1999/xlink" x="0px" y="0px" viewBox="0 0 1000 1000" enable-background="new 0 0 1000 1000" xml:space="preserve">
<metadata> Svg Vector Icons : http://www.onlinewebfonts.com/icon </metadata>
<g><path d="M500,9.6C229.4,9.6,10,229.2,10,500c0,270.9,219.4,490.4,490,490.4c270.6,0,490-219.6,490-490.4C990,229.2,770.6,9.6,500,9.6z M775.6,428.1L481.5,722.4c-23.8,23.8-62.8,23.8-86.6,0l-150-150.2c-23.8-23.8-23.8-62.8,0-86.7l10.8-10.8c23.8-23.9,62.8-23.9,86.6,0l52.6,52.6c21.6,21.6,42.2,42.6,42.2,42.6s21.3-19.5,44.4-42.6l196.6-196.8c23.8-23.8,62.8-23.8,86.6,0.1l10.8,10.8C799.4,365.2,799.4,404.2,775.6,428.1z"/></g>
</svg>